<svg version="1.1" xmlns="http://www.w3.org/2000/svg" viewBox="0 0 1552.1607875115037 867.9541612929532" width="1552.1607875115037" height="867.9541612929532">
  <!-- svg-source:excalidraw -->
  
  <defs>
    <style class="style-fonts">
      @font-face {
        font-family: "Virgil";
        src: url("https://excalidraw.com/Virgil.woff2");
      }
      @font-face {
        font-family: "Cascadia";
        src: url("https://excalidraw.com/Cascadia.woff2");
      }
    </style>
  </defs>
  <rect x="0" y="0" width="1552.1607875115037" height="867.9541612929532" fill="#ffffff"></rect><g stroke-linecap="round" transform="translate(248.2570529458776 10) rotate(0 241.5 37)"><path d="M4.92 4.28 C4.92 4.28, 4.92 4.28, 4.92 4.28 M4.92 4.28 C4.92 4.28, 4.92 4.28, 4.92 4.28 M3.35 12.19 C4.87 9.13, 8.33 8.05, 11.88 2.38 M3.35 12.19 C6.29 8.07, 9.76 5.07, 11.88 2.38 M1.78 20.1 C7.36 14.64, 7.54 12.56, 18.83 0.47 M1.78 20.1 C5.57 15.4, 11.41 8.88, 18.83 0.47 M2.17 25.74 C9.19 17.31, 17.34 11.85, 24.48 0.08 M2.17 25.74 C7.61 19.73, 12.69 12.53, 24.48 0.08 M1.91 32.14 C8.93 27.5, 11.7 18.78, 29.46 0.44 M1.91 32.14 C7.55 25.29, 13.27 18.87, 29.46 0.44 M2.3 37.78 C11 24.91, 23.22 13.87, 35.11 0.04 M2.3 37.78 C10.55 27.06, 20.02 15.7, 35.11 0.04 M2.7 43.42 C17.81 29.9, 30.72 11.48, 40.09 0.4 M2.7 43.42 C15.75 27.06, 29.39 13.5, 40.09 0.4 M2.44 49.82 C12.89 36.85, 26.82 21.9, 45.74 0.01 M2.44 49.82 C13.27 37.12, 25.2 23.49, 45.74 0.01 M2.83 55.46 C12.54 44.78, 24.57 30.2, 50.72 0.37 M2.83 55.46 C17.56 39.82, 29.79 23.23, 50.72 0.37 M2.57 61.86 C18.54 43.26, 36.72 20.19, 55.71 0.73 M2.57 61.86 C18.92 43.7, 34.59 26, 55.71 0.73 M4.28 65.99 C18.1 49.55, 32.48 35.66, 61.36 0.33 M4.28 65.99 C18.38 50.55, 33.72 32.32, 61.36 0.33 M6.64 69.37 C30.2 45.18, 48.2 21.45, 66.34 0.69 M6.64 69.37 C27.66 46.07, 48.54 20.63, 66.34 0.69 M9 72.75 C28.08 51.96, 45.11 30.48, 71.99 0.3 M9 72.75 C33.01 45.5, 56.41 17.4, 71.99 0.3 M13.33 73.87 C31.11 52.58, 50.94 29.47, 76.97 0.66 M13.33 73.87 C37.16 47.59, 59.77 22.57, 76.97 0.66 M17.01 75.74 C43.62 47.43, 66.6 19.28, 82.62 0.27 M17.01 75.74 C42.13 46.37, 66.89 18.39, 82.62 0.27 M22 76.1 C38.54 56.29, 59.28 32.58, 87.6 0.63 M22 76.1 C39.23 55.33, 56.22 35.27, 87.6 0.63 M27.64 75.7 C49.52 47.25, 73.85 22.23, 93.25 0.23 M27.64 75.7 C49.44 52.54, 69.08 28.33, 93.25 0.23 M32.63 76.06 C53.85 53.84, 71.09 31.51, 98.23 0.59 M32.63 76.06 C47.52 60.15, 60.59 43.45, 98.23 0.59 M38.27 75.67 C58.73 50.05, 78.78 29.66, 103.88 0.2 M38.27 75.67 C51.59 60.02, 66.24 44.24, 103.88 0.2 M43.26 76.03 C67.42 49.31, 86.73 24.24, 108.86 0.56 M43.26 76.03 C67.34 48.67, 91.82 20.4, 108.86 0.56 M48.24 76.39 C67.27 55.3, 85.7 32.25, 114.51 0.16 M48.24 76.39 C74.08 46.96, 100.05 16.9, 114.51 0.16 M53.89 75.99 C70.93 54.76, 86 36, 119.49 0.52 M53.89 75.99 C70.4 57.53, 88.54 38.69, 119.49 0.52 M58.87 76.35 C81.45 51.76, 101.25 25.75, 125.14 0.13 M58.87 76.35 C74.09 60.98, 87.93 44.42, 125.14 0.13 M64.52 75.96 C79.62 58.01, 99.72 36.59, 130.12 0.49 M64.52 75.96 C79.71 57.22, 97 37.93, 130.12 0.49 M69.5 76.32 C96.8 46.89, 123.79 14.83, 135.77 0.09 M69.5 76.32 C89.63 52.72, 109.22 29.81, 135.77 0.09 M75.15 75.92 C91.55 59.57, 107.14 42.11, 140.75 0.45 M75.15 75.92 C92.56 55.23, 110.84 34.13, 140.75 0.45 M80.13 76.28 C97.32 53.96, 119.05 32.83, 145.74 0.81 M80.13 76.28 C99.49 53.88, 120.09 31.16, 145.74 0.81 M85.78 75.89 C102.2 56.1, 119.29 36.76, 151.38 0.42 M85.78 75.89 C108.03 50.74, 129.37 26.56, 151.38 0.42 M90.76 76.25 C111.37 53.03, 135.38 28.41, 156.37 0.78 M90.76 76.25 C114.06 48.94, 138.56 21.96, 156.37 0.78 M96.41 75.86 C114.49 55.16, 133.34 34.19, 162.01 0.38 M96.41 75.86 C116.21 51.68, 138.24 28.39, 162.01 0.38 M101.39 76.22 C117.04 58.59, 131.16 38.07, 167 0.74 M101.39 76.22 C114.98 58.6, 129.6 44.24, 167 0.74 M107.04 75.82 C131.77 44.54, 161.27 16.17, 172.64 0.35 M107.04 75.82 C122.02 56.96, 137.79 39.43, 172.64 0.35 M112.02 76.18 C130.2 55.31, 152.21 29.72, 177.63 0.71 M112.02 76.18 C133.93 52.65, 155 27.42, 177.63 0.71 M117.67 75.79 C130.58 61.05, 144.69 42.25, 183.27 0.32 M117.67 75.79 C132.5 59.23, 146.93 41.23, 183.27 0.32 M122.65 76.15 C146.37 46.28, 174.24 15.09, 188.26 0.68 M122.65 76.15 C143.77 52.5, 165.8 28.34, 188.26 0.68 M128.3 75.75 C146.87 56.05, 163.52 34.03, 193.9 0.28 M128.3 75.75 C145.4 55.83, 162.05 36.76, 193.9 0.28 M133.28 76.11 C156.23 50.31, 178.14 24.42, 198.89 0.64 M133.28 76.11 C156.57 48.1, 181.66 21.99, 198.89 0.64 M138.93 75.72 C153.05 58.78, 168.31 41.97, 204.53 0.25 M138.93 75.72 C157.94 54.32, 176.34 32.37, 204.53 0.25 M143.91 76.08 C165.61 49.58, 190.69 24.35, 209.52 0.61 M143.91 76.08 C169.44 45.63, 196.77 16.1, 209.52 0.61 M148.9 76.44 C168.72 55.75, 185.65 31.26, 215.16 0.21 M148.9 76.44 C167.7 55.62, 185.39 33.17, 215.16 0.21 M154.54 76.04 C166.23 62.91, 180.33 47.16, 220.15 0.57 M154.54 76.04 C171.84 55.07, 189.73 35.09, 220.15 0.57 M159.53 76.4 C180.25 49.76, 201.89 25.67, 225.79 0.18 M159.53 76.4 C185.42 46.14, 211.93 16.34, 225.79 0.18 M165.17 76.01 C183.59 56.02, 201.17 33.92, 230.78 0.54 M165.17 76.01 C181.64 56.81, 198.36 37.02, 230.78 0.54 M170.16 76.37 C196.46 45.49, 220.79 14.14, 236.42 0.14 M170.16 76.37 C185.97 59.13, 199.57 42.58, 236.42 0.14 M175.8 75.97 C191.96 57, 210.7 36.19, 241.41 0.5 M175.8 75.97 C195.94 54.05, 214.65 30.77, 241.41 0.5 M180.79 76.33 C197.2 58.73, 210.16 42.96, 246.4 0.86 M180.79 76.33 C199.76 54.83, 218.61 32.98, 246.4 0.86 M186.43 75.94 C203.8 53.3, 223.37 29.89, 252.04 0.47 M186.43 75.94 C207.47 50.53, 230.82 25.13, 252.04 0.47 M191.42 76.3 C212.91 52.53, 235.08 27.26, 257.03 0.83 M191.42 76.3 C206.44 59.93, 218.87 46.15, 257.03 0.83 M197.06 75.9 C213.04 59.24, 227.97 39.72, 262.67 0.43 M197.06 75.9 C212.85 57.15, 231.04 36.99, 262.67 0.43 M202.05 76.27 C218.25 55.46, 234.19 35.59, 267.66 0.79 M202.05 76.27 C222.8 51.25, 244.82 27.94, 267.66 0.79 M207.69 75.87 C230.3 51.13, 252.77 21.38, 273.3 0.4 M207.69 75.87 C229.11 53.15, 248.68 28.79, 273.3 0.4 M212.68 76.23 C236.36 45.43, 264.65 16.16, 278.29 0.76 M212.68 76.23 C227.64 60.06, 242.47 42.5, 278.29 0.76 M218.33 75.84 C234.96 58.34, 249.39 39.7, 283.93 0.36 M218.33 75.84 C233.32 57.02, 249.03 39.31, 283.93 0.36 M223.31 76.2 C246 49.78, 266.57 26.44, 288.92 0.73 M223.31 76.2 C240.71 56.79, 258.61 35.93, 288.92 0.73 M228.96 75.8 C249.31 51.41, 269.38 27.54, 294.56 0.33 M228.96 75.8 C243.55 57.69, 259.15 38.97, 294.56 0.33 M233.94 76.16 C253.07 55.24, 271.79 33.03, 299.55 0.69 M233.94 76.16 C251.26 56.12, 270 35.43, 299.55 0.69 M239.59 75.77 C261.91 51.25, 285.21 24.2, 305.19 0.3 M239.59 75.77 C262.14 49.77, 284.45 22.81, 305.19 0.3 M244.57 76.13 C263.42 51.41, 282.84 31.93, 310.18 0.66 M244.57 76.13 C267.24 49.95, 289.71 22.44, 310.18 0.66 M249.56 76.49 C266.87 56.42, 284.7 34.53, 315.82 0.26 M249.56 76.49 C265.41 58.61, 282.83 39.98, 315.82 0.26 M255.2 76.09 C272.59 58.29, 288.02 39.65, 320.81 0.62 M255.2 76.09 C277.21 50.77, 299.05 24.72, 320.81 0.62 M260.19 76.45 C274.49 61.9, 286.38 48.2, 326.45 0.23 M260.19 76.45 C279.47 55.14, 300.08 32.29, 326.45 0.23 M265.83 76.06 C279.8 57.89, 296.3 43.08, 331.44 0.59 M265.83 76.06 C289.97 47.59, 315.13 17.59, 331.44 0.59 M270.82 76.42 C288.98 56.51, 303.8 39.28, 336.43 0.95 M270.82 76.42 C288.52 55.52, 305.48 35.24, 336.43 0.95 M276.46 76.02 C298.55 50.24, 320.17 26.12, 342.07 0.55 M276.46 76.02 C295.39 53.32, 313.75 32.01, 342.07 0.55 M281.45 76.38 C295.86 56.44, 312.73 39.02, 347.06 0.91 M281.45 76.38 C296.49 58.13, 312.85 40.66, 347.06 0.91 M287.09 75.99 C308.19 51.92, 331.54 22.87, 352.7 0.52 M287.09 75.99 C301.57 59.42, 316.56 42.49, 352.7 0.52 M292.08 76.35 C310.84 58, 328.43 35.32, 357.69 0.88 M292.08 76.35 C309.87 55.31, 328.56 34.47, 357.69 0.88 M297.72 75.95 C321.1 48.71, 346.87 21.45, 363.33 0.48 M297.72 75.95 C323.97 47.03, 350.38 16.82, 363.33 0.48 M302.71 76.31 C319.86 55.84, 338.52 33.05, 368.32 0.84 M302.71 76.31 C326.67 51.56, 348.74 25.41, 368.32 0.84 M308.35 75.92 C323.98 60.31, 338.47 41.55, 373.96 0.45 M308.35 75.92 C330.64 48.71, 354.65 22.65, 373.96 0.45 M313.34 76.28 C334.82 51.45, 353.11 27.16, 378.95 0.81 M313.34 76.28 C329.46 59.08, 345.57 40.44, 378.95 0.81 M318.98 75.89 C338.19 52.47, 357.99 30.62, 384.59 0.41 M318.98 75.89 C339.86 52.04, 362.23 26.94, 384.59 0.41 M323.97 76.25 C344.22 52.75, 360.9 33.78, 389.58 0.77 M323.97 76.25 C339.03 59.2, 352.82 43.25, 389.58 0.77 M329.61 75.85 C346.68 56.41, 361.97 37.44, 395.22 0.38 M329.61 75.85 C348.76 55.8, 365.07 34.17, 395.22 0.38 M334.6 76.21 C358.13 48.79, 381.79 18.33, 400.21 0.74 M334.6 76.21 C359.7 48.21, 383.33 19.01, 400.21 0.74 M339.59 76.57 C359.63 51.26, 382.99 28.14, 405.85 0.35 M339.59 76.57 C354.28 60.37, 368.92 43.81, 405.85 0.35 M345.23 76.18 C359.99 57.21, 376.8 39.79, 410.84 0.71 M345.23 76.18 C362.89 54.39, 382.77 33.98, 410.84 0.71 M350.22 76.54 C374.88 49.79, 402.33 20.84, 416.48 0.31 M350.22 76.54 C372.11 51.31, 392.41 27.01, 416.48 0.31 M355.86 76.14 C379.16 47.51, 401.89 19.83, 421.47 0.67 M355.86 76.14 C375.68 52.17, 397.62 27.58, 421.47 0.67 M360.85 76.5 C384.11 49.89, 404.81 25.22, 427.11 0.28 M360.85 76.5 C374.06 61.17, 388.9 44.61, 427.11 0.28 M366.49 76.11 C379.51 60.38, 395.92 41.59, 432.1 0.64 M366.49 76.11 C391.27 47.29, 416.24 19.63, 432.1 0.64 M371.48 76.47 C394.63 52.22, 415.59 26.38, 437.08 1 M371.48 76.47 C387.73 58.03, 403.55 39.6, 437.08 1 M377.12 76.07 C393.96 58.63, 408.91 42.07, 442.73 0.6 M377.12 76.07 C399.98 51.38, 422.73 25.27, 442.73 0.6 M382.11 76.43 C399.92 55.27, 418.71 32.71, 447.71 0.96 M382.11 76.43 C399.32 56.76, 416.72 38.53, 447.71 0.96 M387.75 76.04 C410.78 49.64, 434.01 19.81, 453.36 0.57 M387.75 76.04 C414.26 46.29, 439.58 18.57, 453.36 0.57 M392.74 76.4 C420.57 46.9, 445.58 15.05, 458.34 0.93 M392.74 76.4 C407.77 60.31, 421.65 42.43, 458.34 0.93 M398.38 76 C413.47 56.55, 429.84 38.54, 463.99 0.53 M398.38 76 C418.96 51.99, 440.08 27.28, 463.99 0.53 M403.37 76.36 C420.28 58.07, 436.87 39.39, 468.97 0.89 M403.37 76.36 C426.65 47.33, 451.32 20.46, 468.97 0.89 M409.01 75.97 C431.78 51.3, 456.42 22.62, 473.3 2.01 M409.01 75.97 C422.27 61.58, 434.85 45.38, 473.3 2.01 M414 76.33 C430.67 57.13, 444.77 36.98, 476.98 3.88 M414 76.33 C430.44 56.76, 448.88 37.24, 476.98 3.88 M419.64 75.94 C436.53 57.16, 450.08 38.09, 479.34 7.26 M419.64 75.94 C441.62 50.95, 462.44 27.05, 479.34 7.26 M424.63 76.3 C439.17 59.35, 455.62 41.76, 481.7 10.64 M424.63 76.3 C444.71 53.59, 464.76 28.96, 481.7 10.64 M430.27 75.9 C443.6 61.79, 455.02 49.36, 482.76 15.52 M430.27 75.9 C448.87 53.24, 468.63 31.55, 482.76 15.52 M435.26 76.26 C452.89 54.76, 471.55 35.77, 484.46 19.66 M435.26 76.26 C445.42 63.72, 455.08 53.07, 484.46 19.66 M440.24 76.62 C456.1 58.72, 471.25 40.35, 484.2 26.06 M440.24 76.62 C448.68 66.63, 457.66 55.11, 484.2 26.06 M445.89 76.23 C460.17 60.37, 477.89 39.97, 484.6 31.7 M445.89 76.23 C455.75 64.35, 464.83 53.58, 484.6 31.7 M450.87 76.59 C457.86 66.65, 465.57 57.16, 484.33 38.1 M450.87 76.59 C464.41 61.88, 476.93 47.39, 484.33 38.1 M456.52 76.19 C465.77 66.66, 475.92 56.04, 484.07 44.49 M456.52 76.19 C464.11 66.24, 471.89 57.68, 484.07 44.49 M461.5 76.55 C467.98 68.45, 474.63 58.18, 484.47 50.14 M461.5 76.55 C466.25 70.61, 471.8 64.88, 484.47 50.14 M467.15 76.16 C469.62 72.46, 474.71 64.47, 484.21 56.53 M467.15 76.16 C472.15 70.2, 478.98 62.98, 484.21 56.53 M474.1 74.25 C478.06 71.13, 482.75 63.36, 485.26 61.42 M474.1 74.25 C477.31 70.43, 479.79 66.33, 485.26 61.42" stroke="#ced4da" stroke-width="0.5" fill="none"></path><path d="M18.5 0 M18.5 0 C174.96 0.61, 331.51 -0.08, 464.5 0 M18.5 0 C108.49 -0.39, 197.67 -0.72, 464.5 0 M464.5 0 C478 -0.99, 481.33 6.76, 483 18.5 M464.5 0 C478.7 -2.01, 485.24 8.07, 483 18.5 M483 18.5 C484.03 32.26, 485.23 44.64, 483 55.5 M483 18.5 C483.63 32.74, 483.38 47.42, 483 55.5 M483 55.5 C481.06 65.96, 476.31 74.97, 464.5 74 M483 55.5 C481.98 68.16, 474.61 76.26, 464.5 74 M464.5 74 C298.43 75.04, 130.82 75.91, 18.5 74 M464.5 74 C301.28 75.54, 137.23 75.32, 18.5 74 M18.5 74 C4.33 74.52, 0.12 68.88, 0 55.5 M18.5 74 C5.45 72.75, -0.26 68.61, 0 55.5 M0 55.5 C1.75 41.37, -0.92 30.51, 0 18.5 M0 55.5 C0.1 47.2, -0.52 37.92, 0 18.5 M0 18.5 C1.54 7.82, 4.25 -0.33, 18.5 0 M0 18.5 C-2.11 5.28, 4.96 2.22, 18.5 0" stroke="#000000" stroke-width="1" fill="none"></path></g><g transform="translate(317.2570529458776 35) rotate(0 160.5 12.5)"><text x="0" y="18" font-family="Virgil, Segoe UI Emoji" font-size="20px" fill="#000000" text-anchor="start" style="white-space: pre;" direction="ltr">Duplicate Information Detection</text></g><g stroke-linecap="round" transform="translate(30.257052945877604 20) rotate(0 71.5 29)"><path d="M14.5 0 M14.5 0 C59.25 2.2, 103.43 -0.78, 128.5 0 M14.5 0 C51.96 0.14, 89.83 1.16, 128.5 0 M128.5 0 C138.59 1.3, 141.79 6.14, 143 14.5 M128.5 0 C139.94 0.38, 144.5 5.72, 143 14.5 M143 14.5 C142.96 24.15, 144.17 33.29, 143 43.5 M143 14.5 C143.52 23.44, 141.94 34.71, 143 43.5 M143 43.5 C141.55 53.52, 139.06 59.54, 128.5 58 M143 43.5 C141.56 54.71, 139.79 58.67, 128.5 58 M128.5 58 C95.92 58.18, 63.32 58, 14.5 58 M128.5 58 C104.37 57.23, 79.74 58.21, 14.5 58 M14.5 58 C5.34 56.24, -0.6 54.24, 0 43.5 M14.5 58 C5.12 57.81, -0.69 51.29, 0 43.5 M0 43.5 C1.35 33.02, -1.79 25.69, 0 14.5 M0 43.5 C-0.85 35.55, 0.27 26.15, 0 14.5 M0 14.5 C0.22 4.93, 5.43 1.03, 14.5 0 M0 14.5 C1.67 6.13, 3.33 2.07, 14.5 0" stroke="#000000" stroke-width="1" fill="none"></path></g><g transform="translate(82.2570529458776 36.5) rotate(0 19.5 12.5)"><text x="19.5" y="18" font-family="Virgil, Segoe UI Emoji" font-size="20px" fill="#000000" text-anchor="middle" style="white-space: pre;" direction="ltr">.csv</text></g><g stroke-linecap="round"><g transform="translate(180.2570529458776 50) rotate(0 32.359723256863674 -0.012679661437857703)"><path d="M0.08 0.94 C11.05 0.76, 55.1 -0.96, 66.05 -0.97 M-1.33 0.39 C9.46 0.31, 54.08 0.29, 65.13 0.06" stroke="#000000" stroke-width="1" fill="none"></path></g><g transform="translate(180.2570529458776 50) rotate(0 32.359723256863674 -0.012679661437857703)"><path d="M38.6 10.67 C44.39 6.91, 56.47 2, 64.44 0.27 M37.05 11.07 C44.29 8.17, 51.43 5.27, 64.14 0.61" stroke="#000000" stroke-width="1" fill="none"></path></g><g transform="translate(180.2570529458776 50) rotate(0 32.359723256863674 -0.012679661437857703)"><path d="M38.42 -9.85 C44.28 -7.05, 56.42 -5.41, 64.44 0.27 M36.87 -9.45 C44.18 -7.38, 51.35 -5.32, 64.14 0.61" stroke="#000000" stroke-width="1" fill="none"></path></g></g><mask></mask><g stroke-linecap="round" transform="translate(800.7570529458776 18) rotate(0 71.5 29)"><path d="M14.5 0 M14.5 0 C42.59 -0.3, 65.76 0.55, 128.5 0 M14.5 0 C50.8 -0.12, 86.65 0.82, 128.5 0 M128.5 0 C139.64 1.05, 144.53 4.52, 143 14.5 M128.5 0 C137.16 0.2, 141.38 2.94, 143 14.5 M143 14.5 C142.21 26.35, 143.9 33.75, 143 43.5 M143 14.5 C144.11 23.73, 143.52 33.74, 143 43.5 M143 43.5 C143.89 55.06, 137.07 57.94, 128.5 58 M143 43.5 C142.36 55.32, 138.72 57.2, 128.5 58 M128.5 58 C93.97 57, 58.06 58.48, 14.5 58 M128.5 58 C83.99 57.12, 38.43 57.64, 14.5 58 M14.5 58 C3.44 57.58, -0.24 54.58, 0 43.5 M14.5 58 C3.92 56.66, -1 55.11, 0 43.5 M0 43.5 C1.85 33.42, 1.5 27.12, 0 14.5 M0 43.5 C-0.14 32.59, -0.02 22.21, 0 14.5 M0 14.5 C0.07 5.31, 4.05 0.94, 14.5 0 M0 14.5 C1.63 3.91, 6.69 -0.33, 14.5 0" stroke="#000000" stroke-width="1" fill="none"></path></g><g transform="translate(852.7570529458776 34.5) rotate(0 19.5 12.5)"><text x="19.5" y="18" font-family="Virgil, Segoe UI Emoji" font-size="20px" fill="#000000" text-anchor="middle" style="white-space: pre;" direction="ltr">.csv</text></g><g stroke-linecap="round"><g transform="translate(736.2570529458776 49) rotate(0 27.8406938706059 0.222080157005081)"><path d="M1.08 0.4 C10.45 0.71, 46.23 1.23, 55.49 1.27 M0.19 -0.44 C9.41 -0.46, 44.93 -1.08, 54.28 -0.71" stroke="#000000" stroke-width="1" fill="none"></path></g><g transform="translate(736.2570529458776 49) rotate(0 27.8406938706059 0.222080157005081)"><path d="M28.55 7.82 C34.77 7.28, 40.09 5.79, 54.04 0 M27.34 8.64 C36.88 6.04, 46.71 1.45, 54.44 -1.34" stroke="#000000" stroke-width="1" fill="none"></path></g><g transform="translate(736.2570529458776 49) rotate(0 27.8406938706059 0.222080157005081)"><path d="M28.69 -11.34 C34.78 -7.24, 40.07 -4.1, 54.04 0 M27.49 -10.52 C37.06 -6.35, 46.84 -4.18, 54.44 -1.34" stroke="#000000" stroke-width="1" fill="none"></path></g></g><mask></mask><g stroke-linecap="round" transform="translate(181.2570529458776 166) rotate(0 284 40.99999999999999)"><path d="M20.5 0 M20.5 0 C223.59 1.53, 428.63 1.15, 547.5 0 M20.5 0 C151.06 1.35, 281.7 1.58, 547.5 0 M547.5 0 C560.79 -0.11, 567.12 6.87, 568 20.5 M547.5 0 C559.54 -2.3, 568.25 7.71, 568 20.5 M568 20.5 C567.06 29.14, 566.48 37.33, 568 61.5 M568 20.5 C569.02 29.2, 568.02 39.25, 568 61.5 M568 61.5 C569.9 76.2, 560.48 82.1, 547.5 82 M568 61.5 C567.15 77.3, 559.61 80.45, 547.5 82 M547.5 82 C388.59 84.39, 228.68 83.2, 20.5 82 M547.5 82 C342.37 82, 138.04 82.02, 20.5 82 M20.5 82 C5.4 81.32, -0.3 74.6, 0 61.5 M20.5 82 C9.04 81.02, 1.46 73.75, 0 61.5 M0 61.5 C0.5 50.94, -0.14 40.58, 0 20.5 M0 61.5 C-0.66 45.24, -0.15 29.87, 0 20.5 M0 20.5 C0.88 6.33, 8.28 -1.77, 20.5 0 M0 20.5 C0.51 6.5, 6.28 0.86, 20.5 0" stroke="#000000" stroke-width="1" fill="none"></path></g><g transform="translate(209.2570529458776 185) rotate(0 219.5 37.5)"><text x="0" y="18" font-family="Virgil, Segoe UI Emoji" font-size="20px" fill="#000000" text-anchor="start" style="white-space: pre;" direction="ltr">PREPROCESS + SCORE ADDRESS QUALITY</text><text x="0" y="43" font-family="Virgil, Segoe UI Emoji" font-size="20px" fill="#000000" text-anchor="start" style="white-space: pre;" direction="ltr">+ DROP EXACT COPIES </text><text x="0" y="68" font-family="Virgil, Segoe UI Emoji" font-size="20px" fill="#000000" text-anchor="start" style="white-space: pre;" direction="ltr"></text></g><g stroke-linecap="round"><g transform="translate(474.00216868424707 92.09836065573774) rotate(0 -3.2903575112461567 29.41370664586418)"><path d="M0.9 -0.96 C-0.52 9.13, -6.05 49.76, -7.49 59.78 M-0.08 1.16 C-1.2 11, -4.28 48.88, -5.15 58.21" stroke="#000000" stroke-width="1" fill="none"></path></g><g transform="translate(474.00216868424707 92.09836065573774) rotate(0 -3.2903575112461567 29.41370664586418)"><path d="M-14.41 28.45 C-8.29 39.03, -6.29 52.83, -3.31 58.1 M-12.04 30.03 C-9.54 38.95, -7.63 48.32, -5.41 57.71" stroke="#000000" stroke-width="1" fill="none"></path></g><g transform="translate(474.00216868424707 92.09836065573774) rotate(0 -3.2903575112461567 29.41370664586418)"><path d="M5.73 30.2 C4.08 40.26, -1.7 53.39, -3.31 58.1 M8.1 31.78 C3.98 40.03, -0.72 48.83, -5.41 57.71" stroke="#000000" stroke-width="1" fill="none"></path></g></g><mask></mask><g stroke-linecap="round" transform="translate(93.2570529458776 298) rotate(0 263.5 35)"><path d="M17.5 0 M17.5 0 C135.1 0.71, 252.3 0.12, 509.5 0 M17.5 0 C194.04 0.72, 371.1 1.24, 509.5 0 M509.5 0 C522.56 0.42, 527.42 3.86, 527 17.5 M509.5 0 C523.46 1.47, 526.06 7.51, 527 17.5 M527 17.5 C526.24 24.06, 527.25 32.32, 527 52.5 M527 17.5 C526.36 29.37, 526.42 42.16, 527 52.5 M527 52.5 C525.3 63.97, 521.07 69.38, 509.5 70 M527 52.5 C527.49 65.01, 519.42 69.63, 509.5 70 M509.5 70 C385.47 69.52, 261.47 68.66, 17.5 70 M509.5 70 C408.46 69.59, 307.97 69.65, 17.5 70 M17.5 70 C7.37 71.7, 1.29 65.47, 0 52.5 M17.5 70 C5.74 71.43, -2.21 64.64, 0 52.5 M0 52.5 C0.32 43.73, -1.57 39.07, 0 17.5 M0 52.5 C-0.36 45.41, 0.65 37.24, 0 17.5 M0 17.5 C1.1 6.53, 6.19 -0.06, 17.5 0 M0 17.5 C1.01 4.33, 5.57 -0.59, 17.5 0" stroke="#000000" stroke-width="1" fill="none"></path></g><g transform="translate(124.7570529458776 308) rotate(0 232 25)"><text x="232" y="18" font-family="Virgil, Segoe UI Emoji" font-size="20px" fill="#000000" text-anchor="middle" style="white-space: pre;" direction="ltr">TF-IDF VECTORIZER + COSINE SIMILARITY</text><text x="232" y="43" font-family="Virgil, Segoe UI Emoji" font-size="20px" fill="#000000" text-anchor="middle" style="white-space: pre;" direction="ltr">+ MARK REFERENCE ROWS</text></g><g stroke-linecap="round"><g transform="translate(759.3554136016153 210.25305118556344) rotate(0 21.724738553563384 -0.35071346526906666)"><path d="M-0.3 1.02 C6.93 1.09, 36.4 0.28, 43.75 -0.1 M1.74 0.52 C8.84 0.3, 36.17 -1.63, 43.12 -1.73" stroke="#000000" stroke-width="1" fill="none"></path></g><g transform="translate(759.3554136016153 210.25305118556344) rotate(0 21.724738553563384 -0.35071346526906666)"><path d="M24.9 7.57 C31.35 5, 35.99 -0.27, 42.41 -1.81 M22.96 6.53 C27.27 5.67, 31.01 2.64, 42.68 -1.86" stroke="#000000" stroke-width="1" fill="none"></path></g><g transform="translate(759.3554136016153 210.25305118556344) rotate(0 21.724738553563384 -0.35071346526906666)"><path d="M24.23 -7.18 C30.84 -4.88, 35.7 -5.29, 42.41 -1.81 M22.29 -8.21 C26.63 -5.84, 30.52 -5.64, 42.68 -1.86" stroke="#000000" stroke-width="1" fill="none"></path></g></g><mask></mask><g stroke-linecap="round" transform="translate(813.2570529458776 176) rotate(0 270.00000000000006 31.5)"><path d="M15.75 0 M15.75 0 C182.13 -1.86, 346.84 -1.69, 524.25 0 M15.75 0 C192.27 -1.92, 369.09 -2.03, 524.25 0 M524.25 0 C533.61 -1.01, 538.51 5.96, 540 15.75 M524.25 0 C533.15 -0.61, 539.29 3.31, 540 15.75 M540 15.75 C538.86 26.79, 538.42 38.94, 540 47.25 M540 15.75 C540.26 25.69, 539.8 33.9, 540 47.25 M540 47.25 C541.68 59.19, 534.87 62.9, 524.25 63 M540 47.25 C538.9 57.07, 533.31 62.27, 524.25 63 M524.25 63 C341.74 63.58, 158.45 63.94, 15.75 63 M524.25 63 C385.44 62.9, 246.18 63.11, 15.75 63 M15.75 63 C7.06 64.15, 1.82 57.22, 0 47.25 M15.75 63 C7.48 63.83, -1 58.96, 0 47.25 M0 47.25 C1.11 37.27, 0.04 29.95, 0 15.75 M0 47.25 C0.1 40.44, 0.83 33.2, 0 15.75 M0 15.75 C0.98 4.24, 7.2 -1.18, 15.75 0 M0 15.75 C-1.76 5.4, 3.73 -1.98, 15.75 0" stroke="#000000" stroke-width="1" fill="none"></path></g><g transform="translate(830.2570529458776 192) rotate(0 255.5 12.5)"><text x="0" y="18" font-family="Virgil, Segoe UI Emoji" font-size="20px" fill="#000000" text-anchor="start" style="white-space: pre;" direction="ltr">Mark exact copies as duplicates w/ Attribute: "C" </text></g><g stroke-linecap="round"><g transform="translate(376.87838942393114 262.8196721311476) rotate(0 -9.766631321256313 13.47832266789096)"><path d="M0.93 -0.42 C-2.67 4.24, -16.98 24.05, -20.47 28.64 M-0.04 -1.68 C-3.37 2.57, -14.77 21.9, -18.27 26.84" stroke="#000000" stroke-width="1" fill="none"></path></g><g transform="translate(376.87838942393114 262.8196721311476) rotate(0 -9.766631321256313 13.47832266789096)"><path d="M-15.09 8.81 C-15 16.06, -18.61 23.01, -18.81 26.42 M-14.32 10.86 C-15.61 15.07, -16.4 21.24, -18.81 26.08" stroke="#000000" stroke-width="1" fill="none"></path></g><g transform="translate(376.87838942393114 262.8196721311476) rotate(0 -9.766631321256313 13.47832266789096)"><path d="M-5.27 15.13 C-9.08 19.96, -16.55 24.43, -18.81 26.42 M-4.5 17.18 C-8.87 19.37, -12.74 23.54, -18.81 26.08" stroke="#000000" stroke-width="1" fill="none"></path></g></g><mask></mask><g stroke-linecap="round" transform="translate(81.2570529458776 422) rotate(0 360 53)"><path d="M26.5 0 M26.5 0 C213.22 -1.22, 401.57 -0.33, 693.5 0 M26.5 0 C174.88 -2.59, 323.84 -2.72, 693.5 0 M693.5 0 C710.19 1.69, 718.12 9.32, 720 26.5 M693.5 0 C711.61 -1.56, 719.79 8.49, 720 26.5 M720 26.5 C721.56 48.87, 719.67 67.11, 720 79.5 M720 26.5 C719.38 46.83, 719.7 66.23, 720 79.5 M720 79.5 C719.96 98.1, 709.61 105.22, 693.5 106 M720 79.5 C720.06 99.14, 712.72 108.06, 693.5 106 M693.5 106 C491.51 103.07, 288.7 104.19, 26.5 106 M693.5 106 C527.12 106.93, 359.93 106.68, 26.5 106 M26.5 106 C9.8 106.8, -1.75 98.47, 0 79.5 M26.5 106 C10.81 107.42, -1.05 97.41, 0 79.5 M0 79.5 C1.61 67.13, 1 52.94, 0 26.5 M0 79.5 C-0.37 66.39, 1.09 51.59, 0 26.5 M0 26.5 C-0.67 10.18, 10.78 -1.16, 26.5 0 M0 26.5 C1.27 8.98, 6.78 1.8, 26.5 0" stroke="#000000" stroke-width="1" fill="none"></path></g><g transform="translate(98.2570529458776 437) rotate(0 346.5 37.5)"><text x="0" y="18" font-family="Virgil, Segoe UI Emoji" font-size="20px" fill="#000000" text-anchor="start" style="white-space: pre;" direction="ltr">SIMILARITY ANALYSIS PHASE 1: </text><text x="0" y="43" font-family="Virgil, Segoe UI Emoji" font-size="20px" fill="#000000" text-anchor="start" style="white-space: pre;" direction="ltr">FIND ROWS DUPLICATE OF REFERENCE ROWS (HIGH CONFIDENCE)</text><text x="0" y="68" font-family="Virgil, Segoe UI Emoji" font-size="20px" fill="#000000" text-anchor="start" style="white-space: pre;" direction="ltr">CRITERIA: &gt;80% Name and then &gt;40% Address Similarity </text></g><g stroke-linecap="round"><g transform="translate(340.58314338432297 382.04819277108436) rotate(0 3.723125301847091 12.053144759396233)"><path d="M-1.04 -0.38 C0.54 3.83, 6.85 21.72, 8.48 25.72 M0.62 -1.62 C2.19 2.24, 6.61 19.84, 7.92 24.18" stroke="#000000" stroke-width="1" fill="none"></path></g><g transform="translate(340.58314338432297 382.04819277108436) rotate(0 3.723125301847091 12.053144759396233)"><path d="M0.04 14.44 C3.3 17.08, 2.68 17.34, 8.48 23.64 M0.86 13.99 C1.8 15.8, 3.48 18.18, 8.22 24.05" stroke="#000000" stroke-width="1" fill="none"></path></g><g transform="translate(340.58314338432297 382.04819277108436) rotate(0 3.723125301847091 12.053144759396233)"><path d="M8.55 12.09 C9.96 15.17, 7.49 15.95, 8.48 23.64 M9.37 11.65 C8.55 13.99, 8.44 16.87, 8.22 24.05" stroke="#000000" stroke-width="1" fill="none"></path></g></g><mask></mask><g stroke-linecap="round" transform="translate(1011.2570529458776 464) rotate(0 190.5 26.5)"><path d="M13.25 0 M13.25 0 C111.58 1.35, 209.99 0.63, 367.75 0 M13.25 0 C130.42 0.26, 247.81 0.12, 367.75 0 M367.75 0 C377.11 0.88, 380.09 3.02, 381 13.25 M367.75 0 C375.16 1.36, 382.33 3.36, 381 13.25 M381 13.25 C378.85 19.66, 381.94 26.94, 381 39.75 M381 13.25 C380.41 22.58, 381.2 32.48, 381 39.75 M381 39.75 C380.19 48.34, 377.88 54.38, 367.75 53 M381 39.75 C382.72 50.71, 375 53.97, 367.75 53 M367.75 53 C252.92 51.71, 137.58 51.43, 13.25 53 M367.75 53 C265.3 54.86, 164.33 54.68, 13.25 53 M13.25 53 C2.45 52.59, -1.07 46.64, 0 39.75 M13.25 53 C3.16 53.97, -1.67 50.06, 0 39.75 M0 39.75 C-1.36 33.31, -1.39 24.87, 0 13.25 M0 39.75 C-1.19 31.49, 0.64 23.02, 0 13.25 M0 13.25 C0.77 3.09, 4.9 -0.67, 13.25 0 M0 13.25 C0.47 4.53, 6.11 -1.88, 13.25 0" stroke="#000000" stroke-width="1" fill="none"></path></g><g transform="translate(1032.2570529458776 479) rotate(0 168 12.5)"><text x="0" y="18" font-family="Virgil, Segoe UI Emoji" font-size="20px" fill="#000000" text-anchor="start" style="white-space: pre;" direction="ltr">Mark duplicates w/ Attribute: "D"</text></g><g stroke-linecap="round"><g transform="translate(820.2570529458778 481.7976356994688) rotate(0 89.00203982504165 8.030564277271068)"><path d="M-0.76 -1.11 C28.7 1.42, 146.83 13.18, 176.66 16.21 M1.04 0.92 C30.87 4.08, 149.32 14.28, 178.77 17.17" stroke="#000000" stroke-width="1" fill="none"></path></g><g transform="translate(820.2570529458778 481.7976356994688) rotate(0 89.00203982504165 8.030564277271068)"><path d="M147.9 22.9 C156.25 23.5, 166.08 21.7, 179.65 17.71 M149.45 24.01 C155.95 22.72, 163.65 20.54, 177.97 17.55" stroke="#000000" stroke-width="1" fill="none"></path></g><g transform="translate(820.2570529458778 481.7976356994688) rotate(0 89.00203982504165 8.030564277271068)"><path d="M149.77 2.47 C157.76 8.95, 167.05 13.05, 179.65 17.71 M151.32 3.57 C157.37 7.22, 164.62 9.96, 177.97 17.55" stroke="#000000" stroke-width="1" fill="none"></path></g></g><mask></mask><g stroke-linecap="round" transform="translate(10 573) rotate(0 431.12852647293874 75.5)"><path d="M32 0 M32 0 C249.65 -1.68, 466.11 -1.27, 830.26 0 M32 0 C266.11 -0.91, 500.64 -0.76, 830.26 0 M830.26 0 C850.21 1.45, 863.91 9.57, 862.26 32 M830.26 0 C849.84 0.69, 861.8 9.32, 862.26 32 M862.26 32 C862.42 49.97, 861.1 70.38, 862.26 119 M862.26 32 C862.72 64.07, 862.29 97.22, 862.26 119 M862.26 119 C863.77 138.94, 852.4 151.18, 830.26 151 M862.26 119 C863.39 139.04, 850.08 150.91, 830.26 151 M830.26 151 C567.87 149.31, 307.54 149.85, 32 151 M830.26 151 C584.39 148.45, 338 147.86, 32 151 M32 151 C10.94 149.65, -1.61 140.89, 0 119 M32 151 C10.98 152.96, -0.99 141.29, 0 119 M0 119 C0.55 96.2, 0.97 70.54, 0 32 M0 119 C-0.08 97.72, -0.7 76.85, 0 32 M0 32 C-1.85 11.29, 10.16 1.58, 32 0 M0 32 C0.11 12.19, 8.6 -1.56, 32 0" stroke="#000000" stroke-width="1" fill="none"></path></g><g transform="translate(25.464341908826327 587.7213948547043) rotate(0 407 62.5)"><text x="0" y="18" font-family="Virgil, Segoe UI Emoji" font-size="20px" fill="#000000" text-anchor="start" style="white-space: pre;" direction="ltr">SIMILARITY ANALYSIS PHASE 2:</text><text x="0" y="43" font-family="Virgil, Segoe UI Emoji" font-size="20px" fill="#000000" text-anchor="start" style="white-space: pre;" direction="ltr">FIND REMAINING DUPLICATES ESCAPED FROM 1st Phase (HIGH CONFIDENCE)</text><text x="0" y="68" font-family="Virgil, Segoe UI Emoji" font-size="20px" fill="#000000" text-anchor="start" style="white-space: pre;" direction="ltr">+ FIND HIGHLY SIMILAR ROWS </text><text x="0" y="93" font-family="Virgil, Segoe UI Emoji" font-size="20px" fill="#000000" text-anchor="start" style="white-space: pre;" direction="ltr">CRITERIA for Duplicates: 100% Name and then &gt;90% Address Similarity </text><text x="0" y="118" font-family="Virgil, Segoe UI Emoji" font-size="20px" fill="#000000" text-anchor="start" style="white-space: pre;" direction="ltr">CRITERIA for Highly Similar: 70-100% Name and then 70-90% Address Similarity</text></g><g stroke-linecap="round"><g transform="translate(883.2097777208082 609.267453780489) rotate(0 61.25763043738996 -38.483737854972304)"><path d="M-0.34 -0.05 C20.2 -12.42, 102.53 -62.58, 122.86 -75.18 M1.68 -1.12 C22.14 -13.74, 101.76 -64.75, 122.17 -76.92" stroke="#000000" stroke-width="1" fill="none"></path></g><g transform="translate(883.2097777208082 609.267453780489) rotate(0 61.25763043738996 -38.483737854972304)"><path d="M103.56 -52.51 C109.98 -60.8, 114.16 -66.71, 122.63 -77.49 M103.94 -53.68 C109.95 -61.59, 116.86 -69.6, 121.67 -76.23" stroke="#000000" stroke-width="1" fill="none"></path></g><g transform="translate(883.2097777208082 609.267453780489) rotate(0 61.25763043738996 -38.483737854972304)"><path d="M92.73 -69.94 C101.89 -73.55, 108.95 -74.83, 122.63 -77.49 M93.11 -71.11 C102.69 -73.19, 113.19 -75.43, 121.67 -76.23" stroke="#000000" stroke-width="1" fill="none"></path></g></g><mask></mask><g stroke-linecap="round" transform="translate(927.2570529458776 357) rotate(0 201.5 25.500000000000007)"><path d="M12.75 0 M12.75 0 C90.31 -1.06, 166.65 -0.86, 390.25 0 M12.75 0 C145.36 1.94, 279.03 0.88, 390.25 0 M390.25 0 C397.32 -1.82, 401.11 3.58, 403 12.75 M390.25 0 C398.9 -1.77, 403.45 6.4, 403 12.75 M403 12.75 C402.31 22.65, 405.11 31.22, 403 38.25 M403 12.75 C403.14 20.33, 402.75 28.89, 403 38.25 M403 38.25 C403.4 45.44, 398.87 50.89, 390.25 51 M403 38.25 C403.9 47.05, 399.36 52.26, 390.25 51 M390.25 51 C275.2 50.35, 158.67 51.19, 12.75 51 M390.25 51 C313.12 49.81, 236.1 49.12, 12.75 51 M12.75 51 C6.16 51.47, 0.47 46.22, 0 38.25 M12.75 51 C5.96 51.28, 0.04 48.55, 0 38.25 M0 38.25 C0.53 31.72, -0.82 23.91, 0 12.75 M0 38.25 C-0.79 33.1, -0.09 26.56, 0 12.75 M0 12.75 C-1.3 3.57, 3.46 1.61, 12.75 0 M0 12.75 C1.04 2.54, 4.7 -1.5, 12.75 0" stroke="#000000" stroke-width="1" fill="none"></path></g><g transform="translate(890.2570529458776 371) rotate(0 212 12.5)"><text x="0" y="18" font-family="Virgil, Segoe UI Emoji" font-size="20px" fill="#000000" text-anchor="start" style="white-space: pre;" direction="ltr">    Mark Reference rows w/ Attribute: "O"</text></g><g stroke-linecap="round"><g transform="translate(817.2570529458778 451.7559398655675) rotate(0 50.27532557137299 -30.181933883234315)"><path d="M-0.63 1.08 C16.08 -9, 84.38 -51.32, 101.19 -61.45 M1.23 0.6 C17.81 -9.24, 84.47 -49.89, 100.86 -60.22" stroke="#000000" stroke-width="1" fill="none"></path></g><g transform="translate(817.2570529458778 451.7559398655675) rotate(0 50.27532557137299 -30.181933883234315)"><path d="M84.08 -34.69 C88.48 -45.12, 98.42 -53.4, 99.41 -59.26 M82.18 -37.23 C89.68 -43.63, 94.16 -51.52, 100.6 -60.21" stroke="#000000" stroke-width="1" fill="none"></path></g><g transform="translate(817.2570529458778 451.7559398655675) rotate(0 50.27532557137299 -30.181933883234315)"><path d="M73.29 -52.15 C81.62 -55.93, 95.63 -57.63, 99.41 -59.26 M71.39 -54.68 C82.44 -55.09, 90.58 -57.07, 100.6 -60.21" stroke="#000000" stroke-width="1" fill="none"></path></g></g><mask></mask><g stroke-linecap="round"><g transform="translate(881.3332865102591 638.2624032128762) rotate(0 70.59021336910955 -12.565384439378931)"><path d="M0.32 0.67 C23.99 -3.46, 118.56 -19.61, 142.15 -23.91 M-0.97 -0.02 C22.6 -4.6, 117.95 -21.76, 141.68 -25.81" stroke="#000000" stroke-width="1" fill="none"></path></g><g transform="translate(881.3332865102591 638.2624032128762) rotate(0 70.59021336910955 -12.565384439378931)"><path d="M116.82 -9.3 C124.43 -14.53, 130.46 -19.09, 139.87 -24.57 M116.4 -11.18 C122.95 -16.18, 130.26 -20.43, 142.38 -25.38" stroke="#000000" stroke-width="1" fill="none"></path></g><g transform="translate(881.3332865102591 638.2624032128762) rotate(0 70.59021336910955 -12.565384439378931)"><path d="M113.26 -29.51 C122.13 -28.44, 129.28 -26.68, 139.87 -24.57 M112.84 -31.39 C120.48 -30.78, 128.78 -29.39, 142.38 -25.38" stroke="#000000" stroke-width="1" fill="none"></path></g></g><mask></mask><g stroke-linecap="round" transform="translate(1028.2570529458776 572) rotate(0 216.5 22)"><path d="M11 0 M11 0 C130.28 1.08, 250.29 0.75, 422 0 M11 0 C172.59 1.1, 334.84 1.41, 422 0 M422 0 C428.11 -0.78, 431.38 2.92, 433 11 M422 0 C428.36 -0.85, 431.96 5.5, 433 11 M433 11 C432.33 16.59, 432.95 22.82, 433 33 M433 11 C433.46 16.51, 433.25 22.18, 433 33 M433 33 C431.22 41.69, 429.88 43.53, 422 44 M433 33 C432.71 41.54, 429.73 45.35, 422 44 M422 44 C262.44 43.84, 101.92 43.05, 11 44 M422 44 C289.06 45.14, 155.66 44.86, 11 44 M11 44 C2.17 45.69, -1.19 39.33, 0 33 M11 44 C3.8 45.24, 0.01 38.62, 0 33 M0 33 C1.46 26.85, -0.11 16.56, 0 11 M0 33 C-0.51 25.21, 1.1 17.82, 0 11 M0 11 C1.28 5.64, 2.04 2, 11 0 M0 11 C-0.93 2.6, 2.48 -0.49, 11 0" stroke="#000000" stroke-width="1" fill="none"></path></g><g transform="translate(1046.2570529458776 581) rotate(0 202.5 12.5)"><text x="0" y="18" font-family="Virgil, Segoe UI Emoji" font-size="20px" fill="#000000" text-anchor="start" style="white-space: pre;" direction="ltr">Mark higly similar ones w/ Attribute: "HS"</text></g><g stroke-linecap="round"><g transform="translate(370.00189667962985 535) rotate(0 -0.9483994046763087 18.468914462418468)"><path d="M-0.38 0.68 C-0.69 6.72, -2.21 29.99, -2.65 35.86 M1.62 -0.01 C1.24 6.19, -2.6 30.81, -3.52 36.94" stroke="#000000" stroke-width="1" fill="none"></path></g><g transform="translate(370.00189667962985 535) rotate(0 -0.9483994046763087 18.468914462418468)"><path d="M-6.11 19.12 C-7.68 22.8, -6.77 27.64, -3.41 37.38 M-6.32 19.25 C-6.1 24.75, -4.74 29.47, -3.71 36.59" stroke="#000000" stroke-width="1" fill="none"></path></g><g transform="translate(370.00189667962985 535) rotate(0 -0.9483994046763087 18.468914462418468)"><path d="M6.35 21.01 C1.87 24.21, -0.13 28.6, -3.41 37.38 M6.14 21.14 C2.9 26.06, 0.8 30.26, -3.71 36.59" stroke="#000000" stroke-width="1" fill="none"></path></g></g><mask></mask><g stroke-linecap="round" transform="translate(1036.2570529458776 652) rotate(0 168.5 22)"><path d="M11 0 M11 0 C74 -0.96, 137.8 -1.21, 326 0 M11 0 C75.79 1.7, 140.51 2.05, 326 0 M326 0 C333.25 0.87, 335.37 4.66, 337 11 M326 0 C335.6 0.96, 336.56 4.44, 337 11 M337 11 C336.06 14.35, 336.92 21.54, 337 33 M337 11 C336.44 17.02, 337.41 22.29, 337 33 M337 33 C337.95 41.02, 335.31 42.77, 326 44 M337 33 C338.53 41.95, 332.8 42.45, 326 44 M326 44 C241.01 43.39, 154.85 44.6, 11 44 M326 44 C257.96 45.77, 190.01 46.8, 11 44 M11 44 C3.06 45.96, 0.24 39.62, 0 33 M11 44 C5.25 45.96, 1.76 39.72, 0 33 M0 33 C-1.14 27.19, 1.83 19.22, 0 11 M0 33 C0.03 25.3, -0.96 18.37, 0 11 M0 11 C-0.6 3, 4.65 1.71, 11 0 M0 11 C-0.22 1.58, 5.22 -0.4, 11 0" stroke="#000000" stroke-width="1" fill="none"></path></g><g transform="translate(1049.2570529458776 663) rotate(0 156.5 12.5)"><text x="0" y="18" font-family="Virgil, Segoe UI Emoji" font-size="20px" fill="#000000" text-anchor="start" style="white-space: pre;" direction="ltr">Mark originals w/ Attribute: "O"</text></g><g stroke-linecap="round"><g transform="translate(880.9784478005815 660.5093657030685) rotate(0 76.1198993422852 10.699161557697181)"><path d="M0.66 0.64 C26.13 4.34, 127.4 17.91, 152.7 21.46 M-0.46 -0.07 C24.91 3.32, 126.66 16.19, 152.04 19.55" stroke="#000000" stroke-width="1" fill="none"></path></g><g transform="translate(880.9784478005815 660.5093657030685) rotate(0 76.1198993422852 10.699161557697181)"><path d="M123.84 27.05 C131.95 24.54, 141.28 20.86, 152.08 18.95 M122.73 25.42 C129.59 23.66, 137.11 23.79, 152.76 19" stroke="#000000" stroke-width="1" fill="none"></path></g><g transform="translate(880.9784478005815 660.5093657030685) rotate(0 76.1198993422852 10.699161557697181)"><path d="M126.47 6.7 C133.69 10.1, 142.27 12.31, 152.08 18.95 M125.36 5.06 C131.59 8.35, 138.46 13.53, 152.76 19" stroke="#000000" stroke-width="1" fill="none"></path></g></g><mask></mask><g stroke-linecap="round"><g transform="translate(883.1355794188164 689.1365359818499) rotate(0 86.30701715246123 29.773153835507088)"><path d="M0.63 0.07 C29.55 9.75, 144.67 49, 173.12 58.9 M-0.5 -0.94 C28.35 8.88, 143.47 50.75, 172.49 60.48" stroke="#000000" stroke-width="1" fill="none"></path></g><g transform="translate(883.1355794188164 689.1365359818499) rotate(0 86.30701715246123 29.773153835507088)"><path d="M142.61 61.82 C150.57 58.6, 159.44 62.24, 170.58 60.96 M142.13 60.92 C153.27 61.23, 162.36 60.33, 171.77 59.57" stroke="#000000" stroke-width="1" fill="none"></path></g><g transform="translate(883.1355794188164 689.1365359818499) rotate(0 86.30701715246123 29.773153835507088)"><path d="M149.41 42.46 C155.7 44.4, 162.78 53.15, 170.58 60.96 M148.93 41.56 C157.64 48.5, 164.39 54.29, 171.77 59.57" stroke="#000000" stroke-width="1" fill="none"></path></g></g><mask></mask><g stroke-linecap="round" transform="translate(1064.2570529458776 727) rotate(0 176 22.5)"><path d="M11.25 0 M11.25 0 C81.9 0.83, 154.48 1.86, 340.75 0 M11.25 0 C81.04 0.32, 151.69 -0.72, 340.75 0 M340.75 0 C349.82 0.48, 351.97 4.67, 352 11.25 M340.75 0 C347.57 -1.12, 351.8 1.86, 352 11.25 M352 11.25 C353.62 19.31, 350.58 29.96, 352 33.75 M352 11.25 C352.91 17.68, 351.25 22.13, 352 33.75 M352 33.75 C353.58 40.78, 347.49 45.93, 340.75 45 M352 33.75 C352.29 41.89, 347.55 46.41, 340.75 45 M340.75 45 C217.55 45.52, 94.4 43.92, 11.25 45 M340.75 45 C215.07 44.49, 90.41 44.12, 11.25 45 M11.25 45 C5.18 43.64, 0.23 40.12, 0 33.75 M11.25 45 C1.52 43.35, 1.11 39.34, 0 33.75 M0 33.75 C-1.87 25.36, 0.38 20.39, 0 11.25 M0 33.75 C0.35 27.26, -0.01 21.55, 0 11.25 M0 11.25 C0.9 5.75, 3.51 1.24, 11.25 0 M0 11.25 C1.73 3.77, 5.9 1.56, 11.25 0" stroke="#000000" stroke-width="1" fill="none"></path></g><g transform="translate(1079.2570529458776 739) rotate(0 165.5 12.5)"><text x="0" y="18" font-family="Virgil, Segoe UI Emoji" font-size="20px" fill="#000000" text-anchor="start" style="white-space: pre;" direction="ltr">Mark remaining w/ Attribute: "NA"</text></g><g stroke-linecap="round" transform="translate(1201.4420619732746 810.8014123561088) rotate(0 170.35936276911457 23.576374468422216)"><path d="M3.14 2.73 C3.14 2.73, 3.14 2.73, 3.14 2.73 M3.14 2.73 C3.14 2.73, 3.14 2.73, 3.14 2.73 M0.25 12.14 C3.71 9.04, 4.03 7.81, 10.09 0.82 M0.25 12.14 C2.23 9.95, 5 6.04, 10.09 0.82 M0.65 17.79 C3.95 11.38, 10.04 7.26, 14.42 1.94 M0.65 17.79 C6.5 11.46, 10.88 5.91, 14.42 1.94 M0.39 24.19 C3.92 19.56, 11.32 12.62, 19.41 2.3 M0.39 24.19 C5.71 17.75, 12.22 10.35, 19.41 2.3 M0.78 29.83 C8.81 19.33, 21.48 9.12, 25.05 1.9 M0.78 29.83 C5.95 24.55, 11.65 17.61, 25.05 1.9 M1.17 35.47 C12.33 24.49, 21.98 9.83, 30.04 2.26 M1.17 35.47 C8.67 27.22, 15.4 18.08, 30.04 2.26 M1.57 41.11 C15.76 27.94, 25.6 10.5, 35.68 1.87 M1.57 41.11 C11.09 31.37, 18.92 22.23, 35.68 1.87 M3.93 44.49 C16.69 29.91, 28.33 13.58, 40.67 2.23 M3.93 44.49 C13.98 31.45, 25.62 19.17, 40.67 2.23 M7.61 46.36 C18.98 30.81, 31.33 18.91, 46.31 1.83 M7.61 46.36 C16.63 34.96, 27.48 23.53, 46.31 1.83 M10.63 48.99 C24.92 32.37, 37.24 17.59, 51.3 2.2 M10.63 48.99 C19.59 36.61, 31.31 25.97, 51.3 2.2 M16.27 48.59 C26.33 40.65, 33.7 28.07, 56.94 1.8 M16.27 48.59 C29.17 33.39, 44.22 16.44, 56.94 1.8 M21.26 48.95 C28.4 38.48, 40.55 28.7, 61.93 2.16 M21.26 48.95 C32.44 35.18, 45.22 22.05, 61.93 2.16 M26.9 48.56 C41.33 32.61, 52.14 19.62, 66.92 2.52 M26.9 48.56 C38.18 35.86, 51.09 20.81, 66.92 2.52 M31.89 48.92 C44.18 31.08, 60.22 15.14, 72.56 2.13 M31.89 48.92 C40.04 39.19, 50.29 27, 72.56 2.13 M37.53 48.52 C53.7 31.18, 69.61 10.8, 77.55 2.49 M37.53 48.52 C48.46 36.33, 59.07 23.21, 77.55 2.49 M42.52 48.88 C57.22 29.91, 75.47 12.26, 83.19 2.09 M42.52 48.88 C56.71 32.5, 71.9 15.57, 83.19 2.09 M48.16 48.49 C65.16 30.44, 81.17 14.61, 88.18 2.45 M48.16 48.49 C61.47 32.61, 74.96 17.75, 88.18 2.45 M53.15 48.85 C62.62 35.4, 74.85 24.02, 93.82 2.06 M53.15 48.85 C63.49 37.84, 72.06 26.22, 93.82 2.06 M58.79 48.45 C71 33.66, 84.63 20.08, 98.81 2.42 M58.79 48.45 C69.21 35.31, 80.77 24.05, 98.81 2.42 M63.78 48.81 C75.65 37.14, 86.43 21.41, 104.45 2.02 M63.78 48.81 C75.66 35.49, 88.13 20.23, 104.45 2.02 M69.42 48.42 C78.36 36.85, 90.76 23.25, 109.44 2.38 M69.42 48.42 C84.8 31.68, 100.08 13.05, 109.44 2.38 M74.41 48.78 C88.14 31.88, 105.59 14.57, 115.08 1.99 M74.41 48.78 C84.32 35.79, 95.14 23.8, 115.08 1.99 M80.05 48.39 C94.92 32.6, 107.9 19.7, 120.07 2.35 M80.05 48.39 C93.79 33.26, 105.34 19.36, 120.07 2.35 M85.04 48.75 C93.8 39.15, 104.56 26.35, 125.71 1.95 M85.04 48.75 C97.5 35.74, 109.87 21.77, 125.71 1.95 M90.68 48.35 C105.14 31.85, 118.23 16.07, 130.7 2.31 M90.68 48.35 C98.61 38.63, 108.27 29.3, 130.7 2.31 M95.67 48.71 C110.79 32.76, 123.58 13.71, 136.34 1.92 M95.67 48.71 C105.14 37.27, 117.2 24.07, 136.34 1.92 M101.31 48.32 C110.92 34.47, 122.43 25.68, 141.33 2.28 M101.31 48.32 C116.08 32.24, 131.49 15.58, 141.33 2.28 M106.3 48.68 C120.44 34.71, 132.51 21.21, 146.97 1.88 M106.3 48.68 C118.12 33.98, 129.6 21.63, 146.97 1.88 M111.28 49.04 C119.68 40.08, 131.96 27.74, 151.96 2.24 M111.28 49.04 C125.63 30.9, 140.86 14.95, 151.96 2.24 M116.93 48.64 C131.62 30.04, 148.29 12.24, 157.6 1.85 M116.93 48.64 C133.51 31.02, 148.04 13.69, 157.6 1.85 M121.91 49 C136.64 31.02, 152.69 15.53, 162.59 2.21 M121.91 49 C136.49 32.62, 151.77 16.32, 162.59 2.21 M127.56 48.61 C137.4 35.93, 150.6 23.25, 167.58 2.57 M127.56 48.61 C136.63 37.79, 145.85 29.4, 167.58 2.57 M132.54 48.97 C141.35 38.52, 150.08 29.01, 173.22 2.18 M132.54 48.97 C148.33 31.11, 163.22 13.72, 173.22 2.18 M138.19 48.57 C152.9 34.15, 165.06 15.84, 178.21 2.54 M138.19 48.57 C150.96 32.12, 165.89 15.82, 178.21 2.54 M143.17 48.93 C154.61 36.32, 164.23 24.36, 183.85 2.14 M143.17 48.93 C150.83 38.82, 160.27 29.33, 183.85 2.14 M148.82 48.54 C160 32.43, 174.4 18.74, 188.84 2.5 M148.82 48.54 C163.73 30.62, 180.34 12.64, 188.84 2.5 M153.8 48.9 C166.89 31.76, 185.66 13.68, 194.48 2.11 M153.8 48.9 C166.87 32.75, 180.07 18.87, 194.48 2.11 M159.45 48.5 C171.2 34.68, 183.24 23.35, 199.47 2.47 M159.45 48.5 C169.82 37.91, 177.75 25.45, 199.47 2.47 M164.43 48.86 C175.83 37.27, 188.99 22.41, 205.11 2.07 M164.43 48.86 C181.21 30, 195.53 13.34, 205.11 2.07 M170.08 48.47 C178.55 38.66, 186.85 28.78, 210.1 2.43 M170.08 48.47 C180.67 35.64, 191.7 23.26, 210.1 2.43 M175.06 48.83 C189.56 29.88, 204.84 14.79, 215.74 2.04 M175.06 48.83 C187.89 35.33, 199.46 21.08, 215.74 2.04 M180.71 48.44 C196.17 32.16, 213.59 10.99, 220.73 2.4 M180.71 48.44 C193.91 33.72, 208.35 16.44, 220.73 2.4 M185.69 48.8 C196.16 33.4, 212.34 18.2, 226.37 2 M185.69 48.8 C200.59 31.46, 215.01 13.43, 226.37 2 M191.34 48.4 C205.12 30.86, 221.84 15.28, 231.36 2.36 M191.34 48.4 C204.94 31.94, 218.08 16.01, 231.36 2.36 M196.32 48.76 C210.87 31.44, 227.28 14, 237 1.97 M196.32 48.76 C209.48 31.79, 223.9 15.56, 237 1.97 M201.97 48.37 C211.26 34.46, 221.86 24.58, 241.99 2.33 M201.97 48.37 C213.37 36.75, 223.92 23.08, 241.99 2.33 M206.95 48.73 C219.15 37.04, 228.36 23.96, 247.63 1.93 M206.95 48.73 C222.51 30.09, 238.3 12.03, 247.63 1.93 M211.94 49.09 C223.88 36.71, 230.52 24.29, 252.62 2.29 M211.94 49.09 C219.9 40.26, 228.56 29.09, 252.62 2.29 M217.58 48.69 C227.44 35.8, 240.46 22.15, 257.6 2.65 M217.58 48.69 C229.12 35.65, 239.91 22.91, 257.6 2.65 M222.57 49.05 C238 32.37, 253.16 10.51, 263.25 2.26 M222.57 49.05 C233.01 36.99, 244.57 23.71, 263.25 2.26 M228.21 48.66 C244.87 32.28, 256.57 13.35, 268.23 2.62 M228.21 48.66 C238.16 37.08, 247.14 25.93, 268.23 2.62 M233.2 49.02 C246.37 36.98, 255.98 20.25, 273.88 2.23 M233.2 49.02 C245.32 35.66, 255.33 23.73, 273.88 2.23 M238.84 48.62 C249.2 34.78, 262.84 23.4, 278.86 2.59 M238.84 48.62 C250.58 32.92, 264.13 19.99, 278.86 2.59 M243.83 48.98 C251.87 39.06, 262.69 27.51, 284.51 2.19 M243.83 48.98 C256.23 34.92, 267.48 20.1, 284.51 2.19 M249.47 48.59 C262.53 32.32, 279.07 17.92, 289.49 2.55 M249.47 48.59 C262.92 32.51, 275.32 17.42, 289.49 2.55 M254.46 48.95 C262.84 38.39, 273.31 28.88, 295.14 2.16 M254.46 48.95 C267.67 34.53, 280.55 18.97, 295.14 2.16 M260.1 48.55 C276.12 31.88, 291.23 14.47, 300.12 2.52 M260.1 48.55 C268.71 39.03, 276.55 29.52, 300.12 2.52 M265.09 48.91 C279.92 32.33, 291.31 18.42, 305.77 2.12 M265.09 48.91 C279.93 31.72, 294.86 15.35, 305.77 2.12 M270.73 48.52 C281.38 36.21, 290.52 25.28, 310.75 2.48 M270.73 48.52 C279.18 37.94, 287.82 27.15, 310.75 2.48 M275.72 48.88 C291.09 34.34, 302.35 17.6, 316.4 2.09 M275.72 48.88 C288.97 32.82, 302.82 17.45, 316.4 2.09 M281.36 48.48 C290.87 37.57, 298.35 28.03, 321.38 2.45 M281.36 48.48 C294.04 33.75, 308.05 17.78, 321.38 2.45 M286.35 48.84 C302.92 32.47, 313.94 17.03, 327.03 2.05 M286.35 48.84 C300.88 30.65, 317.53 11.99, 327.03 2.05 M291.99 48.45 C303.66 37.42, 315.9 22.71, 332.67 1.66 M291.99 48.45 C301.01 37.87, 310.75 26.53, 332.67 1.66 M296.98 48.81 C311.05 33.01, 325.43 15.81, 337 2.77 M296.98 48.81 C313.15 31.24, 329.51 12.67, 337 2.77 M301.97 49.17 C308.76 39.77, 318.02 28.89, 339.36 6.15 M301.97 49.17 C315.38 33.68, 329.87 17.79, 339.36 6.15 M307.61 48.78 C316.66 37.29, 327.85 26.25, 342.38 8.78 M307.61 48.78 C318.01 37.47, 325.87 26.1, 342.38 8.78 M312.6 49.14 C323.71 37.77, 329.56 27.39, 342.78 14.42 M312.6 49.14 C320.75 39.69, 330.03 29.39, 342.78 14.42 M318.24 48.74 C325.91 38.24, 332.97 30.98, 342.52 20.82 M318.24 48.74 C324.42 42.36, 330.11 35.22, 342.52 20.82 M323.23 49.1 C327.47 41.82, 332.28 35.35, 342.91 26.46 M323.23 49.1 C327.55 44.47, 333.08 38.84, 342.91 26.46 M329.53 47.95 C333.74 42.98, 337.92 35.48, 342.65 32.86 M329.53 47.95 C334.1 43.27, 338.56 38.73, 342.65 32.86" stroke="#fa5252" stroke-width="0.5" fill="none"></path><path d="M11.79 0 M11.79 0 C87.02 -0.21, 164.56 -0.16, 328.93 0 M11.79 0 C94.49 0.63, 177 0.6, 328.93 0 M328.93 0 C337.99 1.67, 341.26 3.66, 340.72 11.79 M328.93 0 C334.64 -1.7, 338.99 4.77, 340.72 11.79 M340.72 11.79 C338.92 16.35, 339.2 23.81, 340.72 35.36 M340.72 11.79 C340.6 19.28, 340.78 25.52, 340.72 35.36 M340.72 35.36 C339.85 43.22, 335.73 46.06, 328.93 47.15 M340.72 35.36 C342.46 41.08, 336.47 45.03, 328.93 47.15 M328.93 47.15 C217.16 49.34, 105.79 47.84, 11.79 47.15 M328.93 47.15 C223.52 47.16, 117.44 47.32, 11.79 47.15 M11.79 47.15 C2.83 48.24, -0.2 44.93, 0 35.36 M11.79 47.15 C6.05 45.36, -1.53 43.28, 0 35.36 M0 35.36 C-0.06 26.29, -1.75 18.14, 0 11.79 M0 35.36 C-0.26 27.03, -0.13 17.01, 0 11.79 M0 11.79 C1.87 2.71, 2.95 -1.19, 11.79 0 M0 11.79 C0.41 5.17, 2.48 -0.86, 11.79 0" stroke="#000000" stroke-width="1" fill="none"></path></g><g transform="translate(1213.2609283550369 824.5057938650933) rotate(0 154 12.5)"><text x="0" y="18" font-family="Virgil, Segoe UI Emoji" font-size="20px" fill="#000000" text-anchor="start" style="white-space: pre;" direction="ltr">THRESHOLDS ARE NOT FINAL</text></g></svg>
